<mxfile host="app.diagrams.net" modified="2023-11-15T03:38:54.513Z" agent="Mozilla/5.0 (Macintosh; Intel Mac OS X 10_15_7) AppleWebKit/605.1.15 (KHTML, like Gecko) Version/16.3 Safari/605.1.15" etag="sV7foUR3lNDJNApv5VVi" version="22.1.1" type="device">
  <diagram name="第1頁" id="iXFYem52gRydW0bk2Ul8">
    <mxGraphModel dx="742" dy="524" grid="1" gridSize="10" guides="1" tooltips="1" connect="1" arrows="1" fold="1" page="1" pageScale="1" pageWidth="827" pageHeight="1169" math="0" shadow="0">
      <root>
        <mxCell id="0" />
        <mxCell id="1" parent="0" />
        <mxCell id="WdbhsWGcYBLlVoE29ux9-1" value="Assets" style="childLayout=tableLayout;recursiveResize=0;strokeColor=#000000;fillColor=#A7C942;shadow=1;labelBackgroundColor=default;labelBorderColor=#000000;" vertex="1" parent="1">
          <mxGeometry x="240" y="180" width="980" height="318" as="geometry" />
        </mxCell>
        <mxCell id="WdbhsWGcYBLlVoE29ux9-189" style="shape=tableRow;horizontal=0;startSize=0;swimlaneHead=0;swimlaneBody=0;top=0;left=0;bottom=0;right=0;dropTarget=0;collapsible=0;recursiveResize=0;expand=0;fontStyle=0;strokeColor=inherit;fillColor=#ffffff;fontColor=#B3B3B3;" vertex="1" parent="WdbhsWGcYBLlVoE29ux9-1">
          <mxGeometry width="980" height="42" as="geometry" />
        </mxCell>
        <mxCell id="WdbhsWGcYBLlVoE29ux9-190" style="connectable=0;recursiveResize=0;strokeColor=#c0c0c0;fillColor=#B3B3B3;align=center;fontStyle=1;fontColor=none;html=1;labelBackgroundColor=#919191;labelBorderColor=default;noLabel=1;gradientColor=none;" vertex="1" parent="WdbhsWGcYBLlVoE29ux9-189">
          <mxGeometry width="291" height="42" as="geometry">
            <mxRectangle width="291" height="42" as="alternateBounds" />
          </mxGeometry>
        </mxCell>
        <mxCell id="WdbhsWGcYBLlVoE29ux9-191" style="connectable=0;recursiveResize=0;strokeColor=#c0c0c0;fillColor=#B3B3B3;align=center;fontStyle=1;fontColor=#FFFFFF;html=1;labelBackgroundColor=#B3B3B3;labelBorderColor=default;gradientColor=none;" vertex="1" parent="WdbhsWGcYBLlVoE29ux9-189">
          <mxGeometry x="291" width="114" height="42" as="geometry">
            <mxRectangle width="114" height="42" as="alternateBounds" />
          </mxGeometry>
        </mxCell>
        <mxCell id="WdbhsWGcYBLlVoE29ux9-192" style="connectable=0;recursiveResize=0;strokeColor=#c0c0c0;fillColor=#B3B3B3;align=center;fontStyle=1;fontColor=#FFFFFF;html=1;labelBackgroundColor=#B3B3B3;labelBorderColor=default;gradientColor=none;" vertex="1" parent="WdbhsWGcYBLlVoE29ux9-189">
          <mxGeometry x="405" width="113" height="42" as="geometry">
            <mxRectangle width="113" height="42" as="alternateBounds" />
          </mxGeometry>
        </mxCell>
        <mxCell id="WdbhsWGcYBLlVoE29ux9-193" style="connectable=0;recursiveResize=0;strokeColor=#c0c0c0;fillColor=#B3B3B3;align=center;fontStyle=1;fontColor=#FFFFFF;html=1;labelBackgroundColor=#B3B3B3;labelBorderColor=default;gradientColor=none;" vertex="1" parent="WdbhsWGcYBLlVoE29ux9-189">
          <mxGeometry x="518" width="114" height="42" as="geometry">
            <mxRectangle width="114" height="42" as="alternateBounds" />
          </mxGeometry>
        </mxCell>
        <mxCell id="WdbhsWGcYBLlVoE29ux9-194" style="connectable=0;recursiveResize=0;strokeColor=#c0c0c0;fillColor=#B3B3B3;align=center;fontStyle=1;fontColor=#FFFFFF;html=1;labelBackgroundColor=#B3B3B3;labelBorderColor=default;gradientColor=none;" vertex="1" parent="WdbhsWGcYBLlVoE29ux9-189">
          <mxGeometry x="632" width="114" height="42" as="geometry">
            <mxRectangle width="114" height="42" as="alternateBounds" />
          </mxGeometry>
        </mxCell>
        <mxCell id="WdbhsWGcYBLlVoE29ux9-195" style="connectable=0;recursiveResize=0;strokeColor=#c0c0c0;fillColor=#B3B3B3;align=center;fontStyle=1;fontColor=#FFFFFF;html=1;labelBackgroundColor=#B3B3B3;labelBorderColor=default;gradientColor=none;" vertex="1" parent="WdbhsWGcYBLlVoE29ux9-189">
          <mxGeometry x="746" width="114" height="42" as="geometry">
            <mxRectangle width="114" height="42" as="alternateBounds" />
          </mxGeometry>
        </mxCell>
        <mxCell id="WdbhsWGcYBLlVoE29ux9-223" style="connectable=0;recursiveResize=0;strokeColor=#c0c0c0;fillColor=#B3B3B3;align=center;fontStyle=1;fontColor=#FFFFFF;html=1;labelBackgroundColor=#B3B3B3;labelBorderColor=default;gradientColor=none;" vertex="1" parent="WdbhsWGcYBLlVoE29ux9-189">
          <mxGeometry x="860" width="120" height="42" as="geometry">
            <mxRectangle width="120" height="42" as="alternateBounds" />
          </mxGeometry>
        </mxCell>
        <mxCell id="WdbhsWGcYBLlVoE29ux9-2" style="shape=tableRow;horizontal=0;startSize=0;swimlaneHead=0;swimlaneBody=0;top=0;left=0;bottom=0;right=0;dropTarget=0;collapsible=0;recursiveResize=0;expand=0;fontStyle=0;strokeColor=inherit;fillColor=#ffffff;fontColor=#B3B3B3;" vertex="1" parent="WdbhsWGcYBLlVoE29ux9-1">
          <mxGeometry y="42" width="980" height="40" as="geometry" />
        </mxCell>
        <mxCell id="WdbhsWGcYBLlVoE29ux9-65" value="" style="connectable=0;recursiveResize=0;strokeColor=inherit;fillColor=#B3B3B3;align=center;fontStyle=1;fontColor=none;html=1;labelBackgroundColor=#919191;labelBorderColor=none;noLabel=1;" vertex="1" parent="WdbhsWGcYBLlVoE29ux9-2">
          <mxGeometry width="291" height="40" as="geometry">
            <mxRectangle width="291" height="40" as="alternateBounds" />
          </mxGeometry>
        </mxCell>
        <mxCell id="WdbhsWGcYBLlVoE29ux9-3" value="1&lt;span style=&quot;white-space: pre;&quot;&gt;&#x9;&lt;/span&gt;" style="connectable=0;recursiveResize=0;strokeColor=inherit;fillColor=#B3B3B3;align=center;fontStyle=1;fontColor=#FFFFFF;html=1;labelBackgroundColor=#B3B3B3;" vertex="1" parent="WdbhsWGcYBLlVoE29ux9-2">
          <mxGeometry x="291" width="114" height="40" as="geometry">
            <mxRectangle width="114" height="40" as="alternateBounds" />
          </mxGeometry>
        </mxCell>
        <mxCell id="WdbhsWGcYBLlVoE29ux9-116" value="2" style="connectable=0;recursiveResize=0;strokeColor=inherit;fillColor=#B3B3B3;align=center;fontStyle=1;fontColor=#FFFFFF;html=1;labelBackgroundColor=#B3B3B3;" vertex="1" parent="WdbhsWGcYBLlVoE29ux9-2">
          <mxGeometry x="405" width="113" height="40" as="geometry">
            <mxRectangle width="113" height="40" as="alternateBounds" />
          </mxGeometry>
        </mxCell>
        <mxCell id="WdbhsWGcYBLlVoE29ux9-132" value="3" style="connectable=0;recursiveResize=0;strokeColor=inherit;fillColor=#B3B3B3;align=center;fontStyle=1;fontColor=#FFFFFF;html=1;labelBackgroundColor=#B3B3B3;" vertex="1" parent="WdbhsWGcYBLlVoE29ux9-2">
          <mxGeometry x="518" width="114" height="40" as="geometry">
            <mxRectangle width="114" height="40" as="alternateBounds" />
          </mxGeometry>
        </mxCell>
        <mxCell id="WdbhsWGcYBLlVoE29ux9-140" value="4" style="connectable=0;recursiveResize=0;strokeColor=inherit;fillColor=#B3B3B3;align=center;fontStyle=1;fontColor=#FFFFFF;html=1;labelBackgroundColor=#B3B3B3;" vertex="1" parent="WdbhsWGcYBLlVoE29ux9-2">
          <mxGeometry x="632" width="114" height="40" as="geometry">
            <mxRectangle width="114" height="40" as="alternateBounds" />
          </mxGeometry>
        </mxCell>
        <mxCell id="WdbhsWGcYBLlVoE29ux9-148" value="5" style="connectable=0;recursiveResize=0;strokeColor=inherit;fillColor=#B3B3B3;align=center;fontStyle=1;fontColor=#FFFFFF;html=1;labelBackgroundColor=#B3B3B3;" vertex="1" parent="WdbhsWGcYBLlVoE29ux9-2">
          <mxGeometry x="746" width="114" height="40" as="geometry">
            <mxRectangle width="114" height="40" as="alternateBounds" />
          </mxGeometry>
        </mxCell>
        <mxCell id="WdbhsWGcYBLlVoE29ux9-224" value="6" style="connectable=0;recursiveResize=0;strokeColor=inherit;fillColor=#B3B3B3;align=center;fontStyle=1;fontColor=#FFFFFF;html=1;labelBackgroundColor=#B3B3B3;" vertex="1" parent="WdbhsWGcYBLlVoE29ux9-2">
          <mxGeometry x="860" width="120" height="40" as="geometry">
            <mxRectangle width="120" height="40" as="alternateBounds" />
          </mxGeometry>
        </mxCell>
        <mxCell id="WdbhsWGcYBLlVoE29ux9-6" value="" style="shape=tableRow;horizontal=0;startSize=0;swimlaneHead=0;swimlaneBody=0;top=0;left=0;bottom=0;right=0;dropTarget=0;collapsible=0;recursiveResize=0;expand=0;fontStyle=0;strokeColor=inherit;fillColor=#ffffff;" vertex="1" parent="WdbhsWGcYBLlVoE29ux9-1">
          <mxGeometry y="82" width="980" height="38" as="geometry" />
        </mxCell>
        <mxCell id="WdbhsWGcYBLlVoE29ux9-66" value="Identify the problem and &amp;nbsp;obtain approvel" style="connectable=0;recursiveResize=0;strokeColor=#b85450;fillColor=#f8cecc;align=center;whiteSpace=wrap;html=1;" vertex="1" parent="WdbhsWGcYBLlVoE29ux9-6">
          <mxGeometry width="291" height="38" as="geometry">
            <mxRectangle width="291" height="38" as="alternateBounds" />
          </mxGeometry>
        </mxCell>
        <mxCell id="WdbhsWGcYBLlVoE29ux9-7" value="" style="connectable=0;recursiveResize=0;strokeColor=#b85450;fillColor=#f8cecc;align=center;whiteSpace=wrap;html=1;" vertex="1" parent="WdbhsWGcYBLlVoE29ux9-6">
          <mxGeometry x="291" width="114" height="38" as="geometry">
            <mxRectangle width="114" height="38" as="alternateBounds" />
          </mxGeometry>
        </mxCell>
        <mxCell id="WdbhsWGcYBLlVoE29ux9-117" style="connectable=0;recursiveResize=0;strokeColor=#b85450;fillColor=#f8cecc;align=center;whiteSpace=wrap;html=1;" vertex="1" parent="WdbhsWGcYBLlVoE29ux9-6">
          <mxGeometry x="405" width="113" height="38" as="geometry">
            <mxRectangle width="113" height="38" as="alternateBounds" />
          </mxGeometry>
        </mxCell>
        <mxCell id="WdbhsWGcYBLlVoE29ux9-133" style="connectable=0;recursiveResize=0;strokeColor=#b85450;fillColor=#f8cecc;align=center;whiteSpace=wrap;html=1;" vertex="1" parent="WdbhsWGcYBLlVoE29ux9-6">
          <mxGeometry x="518" width="114" height="38" as="geometry">
            <mxRectangle width="114" height="38" as="alternateBounds" />
          </mxGeometry>
        </mxCell>
        <mxCell id="WdbhsWGcYBLlVoE29ux9-141" style="connectable=0;recursiveResize=0;strokeColor=#b85450;fillColor=#f8cecc;align=center;whiteSpace=wrap;html=1;" vertex="1" parent="WdbhsWGcYBLlVoE29ux9-6">
          <mxGeometry x="632" width="114" height="38" as="geometry">
            <mxRectangle width="114" height="38" as="alternateBounds" />
          </mxGeometry>
        </mxCell>
        <mxCell id="WdbhsWGcYBLlVoE29ux9-149" style="connectable=0;recursiveResize=0;strokeColor=#b85450;fillColor=#f8cecc;align=center;whiteSpace=wrap;html=1;" vertex="1" parent="WdbhsWGcYBLlVoE29ux9-6">
          <mxGeometry x="746" width="114" height="38" as="geometry">
            <mxRectangle width="114" height="38" as="alternateBounds" />
          </mxGeometry>
        </mxCell>
        <mxCell id="WdbhsWGcYBLlVoE29ux9-225" style="connectable=0;recursiveResize=0;strokeColor=#b85450;fillColor=#f8cecc;align=center;whiteSpace=wrap;html=1;" vertex="1" parent="WdbhsWGcYBLlVoE29ux9-6">
          <mxGeometry x="860" width="120" height="38" as="geometry">
            <mxRectangle width="120" height="38" as="alternateBounds" />
          </mxGeometry>
        </mxCell>
        <mxCell id="WdbhsWGcYBLlVoE29ux9-10" value="" style="shape=tableRow;horizontal=0;startSize=0;swimlaneHead=0;swimlaneBody=0;top=0;left=0;bottom=0;right=0;dropTarget=0;collapsible=0;recursiveResize=0;expand=0;fontStyle=1;strokeColor=inherit;fillColor=#EAF2D3;" vertex="1" parent="WdbhsWGcYBLlVoE29ux9-1">
          <mxGeometry y="120" width="980" height="41" as="geometry" />
        </mxCell>
        <mxCell id="WdbhsWGcYBLlVoE29ux9-67" value="Plan &amp;nbsp;and monitor the project&lt;span style=&quot;white-space: pre;&quot;&gt;&#x9;&lt;/span&gt;" style="connectable=0;recursiveResize=0;strokeColor=#6c8ebf;fillColor=#dae8fc;whiteSpace=wrap;html=1;" vertex="1" parent="WdbhsWGcYBLlVoE29ux9-10">
          <mxGeometry width="291" height="41" as="geometry">
            <mxRectangle width="291" height="41" as="alternateBounds" />
          </mxGeometry>
        </mxCell>
        <mxCell id="WdbhsWGcYBLlVoE29ux9-11" value="" style="connectable=0;recursiveResize=0;strokeColor=#6c8ebf;fillColor=#dae8fc;whiteSpace=wrap;html=1;" vertex="1" parent="WdbhsWGcYBLlVoE29ux9-10">
          <mxGeometry x="291" width="114" height="41" as="geometry">
            <mxRectangle width="114" height="41" as="alternateBounds" />
          </mxGeometry>
        </mxCell>
        <mxCell id="WdbhsWGcYBLlVoE29ux9-118" style="connectable=0;recursiveResize=0;strokeColor=#6c8ebf;fillColor=#dae8fc;whiteSpace=wrap;html=1;" vertex="1" parent="WdbhsWGcYBLlVoE29ux9-10">
          <mxGeometry x="405" width="113" height="41" as="geometry">
            <mxRectangle width="113" height="41" as="alternateBounds" />
          </mxGeometry>
        </mxCell>
        <mxCell id="WdbhsWGcYBLlVoE29ux9-134" style="connectable=0;recursiveResize=0;strokeColor=#6c8ebf;fillColor=#dae8fc;whiteSpace=wrap;html=1;" vertex="1" parent="WdbhsWGcYBLlVoE29ux9-10">
          <mxGeometry x="518" width="114" height="41" as="geometry">
            <mxRectangle width="114" height="41" as="alternateBounds" />
          </mxGeometry>
        </mxCell>
        <mxCell id="WdbhsWGcYBLlVoE29ux9-142" style="connectable=0;recursiveResize=0;strokeColor=#6c8ebf;fillColor=#dae8fc;whiteSpace=wrap;html=1;" vertex="1" parent="WdbhsWGcYBLlVoE29ux9-10">
          <mxGeometry x="632" width="114" height="41" as="geometry">
            <mxRectangle width="114" height="41" as="alternateBounds" />
          </mxGeometry>
        </mxCell>
        <mxCell id="WdbhsWGcYBLlVoE29ux9-150" style="connectable=0;recursiveResize=0;strokeColor=#6c8ebf;fillColor=#dae8fc;whiteSpace=wrap;html=1;" vertex="1" parent="WdbhsWGcYBLlVoE29ux9-10">
          <mxGeometry x="746" width="114" height="41" as="geometry">
            <mxRectangle width="114" height="41" as="alternateBounds" />
          </mxGeometry>
        </mxCell>
        <mxCell id="WdbhsWGcYBLlVoE29ux9-226" style="connectable=0;recursiveResize=0;strokeColor=#6c8ebf;fillColor=#dae8fc;whiteSpace=wrap;html=1;" vertex="1" parent="WdbhsWGcYBLlVoE29ux9-10">
          <mxGeometry x="860" width="120" height="41" as="geometry">
            <mxRectangle width="120" height="41" as="alternateBounds" />
          </mxGeometry>
        </mxCell>
        <mxCell id="WdbhsWGcYBLlVoE29ux9-14" value="" style="shape=tableRow;horizontal=0;startSize=0;swimlaneHead=0;swimlaneBody=0;top=0;left=0;bottom=0;right=0;dropTarget=0;collapsible=0;recursiveResize=0;expand=0;fontStyle=0;strokeColor=inherit;fillColor=#ffffff;" vertex="1" parent="WdbhsWGcYBLlVoE29ux9-1">
          <mxGeometry y="161" width="980" height="40" as="geometry" />
        </mxCell>
        <mxCell id="WdbhsWGcYBLlVoE29ux9-68" value="Discover and understand details&lt;span style=&quot;white-space: pre;&quot;&gt;&#x9;&lt;/span&gt;" style="connectable=0;recursiveResize=0;strokeColor=#d6b656;fillColor=#fff2cc;fontStyle=0;align=center;whiteSpace=wrap;html=1;" vertex="1" parent="WdbhsWGcYBLlVoE29ux9-14">
          <mxGeometry width="291" height="40" as="geometry">
            <mxRectangle width="291" height="40" as="alternateBounds" />
          </mxGeometry>
        </mxCell>
        <mxCell id="WdbhsWGcYBLlVoE29ux9-15" value="" style="connectable=0;recursiveResize=0;strokeColor=#d6b656;fillColor=#fff2cc;fontStyle=0;align=center;whiteSpace=wrap;html=1;" vertex="1" parent="WdbhsWGcYBLlVoE29ux9-14">
          <mxGeometry x="291" width="114" height="40" as="geometry">
            <mxRectangle width="114" height="40" as="alternateBounds" />
          </mxGeometry>
        </mxCell>
        <mxCell id="WdbhsWGcYBLlVoE29ux9-119" style="connectable=0;recursiveResize=0;strokeColor=#d6b656;fillColor=#fff2cc;fontStyle=0;align=center;whiteSpace=wrap;html=1;" vertex="1" parent="WdbhsWGcYBLlVoE29ux9-14">
          <mxGeometry x="405" width="113" height="40" as="geometry">
            <mxRectangle width="113" height="40" as="alternateBounds" />
          </mxGeometry>
        </mxCell>
        <mxCell id="WdbhsWGcYBLlVoE29ux9-135" style="connectable=0;recursiveResize=0;strokeColor=#d6b656;fillColor=#fff2cc;fontStyle=0;align=center;whiteSpace=wrap;html=1;" vertex="1" parent="WdbhsWGcYBLlVoE29ux9-14">
          <mxGeometry x="518" width="114" height="40" as="geometry">
            <mxRectangle width="114" height="40" as="alternateBounds" />
          </mxGeometry>
        </mxCell>
        <mxCell id="WdbhsWGcYBLlVoE29ux9-143" style="connectable=0;recursiveResize=0;strokeColor=#d6b656;fillColor=#fff2cc;fontStyle=0;align=center;whiteSpace=wrap;html=1;" vertex="1" parent="WdbhsWGcYBLlVoE29ux9-14">
          <mxGeometry x="632" width="114" height="40" as="geometry">
            <mxRectangle width="114" height="40" as="alternateBounds" />
          </mxGeometry>
        </mxCell>
        <mxCell id="WdbhsWGcYBLlVoE29ux9-151" style="connectable=0;recursiveResize=0;strokeColor=#d6b656;fillColor=#fff2cc;fontStyle=0;align=center;whiteSpace=wrap;html=1;" vertex="1" parent="WdbhsWGcYBLlVoE29ux9-14">
          <mxGeometry x="746" width="114" height="40" as="geometry">
            <mxRectangle width="114" height="40" as="alternateBounds" />
          </mxGeometry>
        </mxCell>
        <mxCell id="WdbhsWGcYBLlVoE29ux9-227" style="connectable=0;recursiveResize=0;strokeColor=#d6b656;fillColor=#fff2cc;fontStyle=0;align=center;whiteSpace=wrap;html=1;" vertex="1" parent="WdbhsWGcYBLlVoE29ux9-14">
          <mxGeometry x="860" width="120" height="40" as="geometry">
            <mxRectangle width="120" height="40" as="alternateBounds" />
          </mxGeometry>
        </mxCell>
        <mxCell id="WdbhsWGcYBLlVoE29ux9-18" value="" style="shape=tableRow;horizontal=0;startSize=0;swimlaneHead=0;swimlaneBody=0;top=0;left=0;bottom=0;right=0;dropTarget=0;collapsible=0;recursiveResize=0;expand=0;fontStyle=1;strokeColor=inherit;fillColor=#EAF2D3;" vertex="1" parent="WdbhsWGcYBLlVoE29ux9-1">
          <mxGeometry y="201" width="980" height="39" as="geometry" />
        </mxCell>
        <mxCell id="WdbhsWGcYBLlVoE29ux9-69" value="Design system components&lt;span style=&quot;white-space: pre;&quot;&gt;&#x9;&lt;/span&gt;" style="connectable=0;recursiveResize=0;strokeColor=#82b366;fillColor=#d5e8d4;whiteSpace=wrap;html=1;" vertex="1" parent="WdbhsWGcYBLlVoE29ux9-18">
          <mxGeometry width="291" height="39" as="geometry">
            <mxRectangle width="291" height="39" as="alternateBounds" />
          </mxGeometry>
        </mxCell>
        <mxCell id="WdbhsWGcYBLlVoE29ux9-19" value="" style="connectable=0;recursiveResize=0;strokeColor=#82b366;fillColor=#d5e8d4;whiteSpace=wrap;html=1;" vertex="1" parent="WdbhsWGcYBLlVoE29ux9-18">
          <mxGeometry x="291" width="114" height="39" as="geometry">
            <mxRectangle width="114" height="39" as="alternateBounds" />
          </mxGeometry>
        </mxCell>
        <mxCell id="WdbhsWGcYBLlVoE29ux9-120" style="connectable=0;recursiveResize=0;strokeColor=#82b366;fillColor=#d5e8d4;whiteSpace=wrap;html=1;" vertex="1" parent="WdbhsWGcYBLlVoE29ux9-18">
          <mxGeometry x="405" width="113" height="39" as="geometry">
            <mxRectangle width="113" height="39" as="alternateBounds" />
          </mxGeometry>
        </mxCell>
        <mxCell id="WdbhsWGcYBLlVoE29ux9-136" style="connectable=0;recursiveResize=0;strokeColor=#82b366;fillColor=#d5e8d4;whiteSpace=wrap;html=1;" vertex="1" parent="WdbhsWGcYBLlVoE29ux9-18">
          <mxGeometry x="518" width="114" height="39" as="geometry">
            <mxRectangle width="114" height="39" as="alternateBounds" />
          </mxGeometry>
        </mxCell>
        <mxCell id="WdbhsWGcYBLlVoE29ux9-144" style="connectable=0;recursiveResize=0;strokeColor=#82b366;fillColor=#d5e8d4;whiteSpace=wrap;html=1;" vertex="1" parent="WdbhsWGcYBLlVoE29ux9-18">
          <mxGeometry x="632" width="114" height="39" as="geometry">
            <mxRectangle width="114" height="39" as="alternateBounds" />
          </mxGeometry>
        </mxCell>
        <mxCell id="WdbhsWGcYBLlVoE29ux9-152" style="connectable=0;recursiveResize=0;strokeColor=#82b366;fillColor=#d5e8d4;whiteSpace=wrap;html=1;" vertex="1" parent="WdbhsWGcYBLlVoE29ux9-18">
          <mxGeometry x="746" width="114" height="39" as="geometry">
            <mxRectangle width="114" height="39" as="alternateBounds" />
          </mxGeometry>
        </mxCell>
        <mxCell id="WdbhsWGcYBLlVoE29ux9-228" style="connectable=0;recursiveResize=0;strokeColor=#82b366;fillColor=#d5e8d4;whiteSpace=wrap;html=1;" vertex="1" parent="WdbhsWGcYBLlVoE29ux9-18">
          <mxGeometry x="860" width="120" height="39" as="geometry">
            <mxRectangle width="120" height="39" as="alternateBounds" />
          </mxGeometry>
        </mxCell>
        <mxCell id="WdbhsWGcYBLlVoE29ux9-22" style="shape=tableRow;horizontal=0;startSize=0;swimlaneHead=0;swimlaneBody=0;top=0;left=0;bottom=0;right=0;dropTarget=0;collapsible=0;recursiveResize=0;expand=0;fontStyle=1;strokeColor=inherit;fillColor=#EAF2D3;" vertex="1" parent="WdbhsWGcYBLlVoE29ux9-1">
          <mxGeometry y="240" width="980" height="39" as="geometry" />
        </mxCell>
        <mxCell id="WdbhsWGcYBLlVoE29ux9-70" value="Build, test, and integrates system componemts&lt;span style=&quot;white-space: pre;&quot;&gt;&#x9;&lt;/span&gt;" style="connectable=0;recursiveResize=0;strokeColor=#d79b00;fillColor=#ffe6cc;whiteSpace=wrap;html=1;" vertex="1" parent="WdbhsWGcYBLlVoE29ux9-22">
          <mxGeometry width="291" height="39" as="geometry">
            <mxRectangle width="291" height="39" as="alternateBounds" />
          </mxGeometry>
        </mxCell>
        <mxCell id="WdbhsWGcYBLlVoE29ux9-23" style="connectable=0;recursiveResize=0;strokeColor=#d79b00;fillColor=#ffe6cc;whiteSpace=wrap;html=1;" vertex="1" parent="WdbhsWGcYBLlVoE29ux9-22">
          <mxGeometry x="291" width="114" height="39" as="geometry">
            <mxRectangle width="114" height="39" as="alternateBounds" />
          </mxGeometry>
        </mxCell>
        <mxCell id="WdbhsWGcYBLlVoE29ux9-121" style="connectable=0;recursiveResize=0;strokeColor=#d79b00;fillColor=#ffe6cc;whiteSpace=wrap;html=1;" vertex="1" parent="WdbhsWGcYBLlVoE29ux9-22">
          <mxGeometry x="405" width="113" height="39" as="geometry">
            <mxRectangle width="113" height="39" as="alternateBounds" />
          </mxGeometry>
        </mxCell>
        <mxCell id="WdbhsWGcYBLlVoE29ux9-137" style="connectable=0;recursiveResize=0;strokeColor=#d79b00;fillColor=#ffe6cc;whiteSpace=wrap;html=1;" vertex="1" parent="WdbhsWGcYBLlVoE29ux9-22">
          <mxGeometry x="518" width="114" height="39" as="geometry">
            <mxRectangle width="114" height="39" as="alternateBounds" />
          </mxGeometry>
        </mxCell>
        <mxCell id="WdbhsWGcYBLlVoE29ux9-145" style="connectable=0;recursiveResize=0;strokeColor=#d79b00;fillColor=#ffe6cc;whiteSpace=wrap;html=1;" vertex="1" parent="WdbhsWGcYBLlVoE29ux9-22">
          <mxGeometry x="632" width="114" height="39" as="geometry">
            <mxRectangle width="114" height="39" as="alternateBounds" />
          </mxGeometry>
        </mxCell>
        <mxCell id="WdbhsWGcYBLlVoE29ux9-153" style="connectable=0;recursiveResize=0;strokeColor=#d79b00;fillColor=#ffe6cc;whiteSpace=wrap;html=1;" vertex="1" parent="WdbhsWGcYBLlVoE29ux9-22">
          <mxGeometry x="746" width="114" height="39" as="geometry">
            <mxRectangle width="114" height="39" as="alternateBounds" />
          </mxGeometry>
        </mxCell>
        <mxCell id="WdbhsWGcYBLlVoE29ux9-229" style="connectable=0;recursiveResize=0;strokeColor=#d79b00;fillColor=#ffe6cc;whiteSpace=wrap;html=1;" vertex="1" parent="WdbhsWGcYBLlVoE29ux9-22">
          <mxGeometry x="860" width="120" height="39" as="geometry">
            <mxRectangle width="120" height="39" as="alternateBounds" />
          </mxGeometry>
        </mxCell>
        <mxCell id="WdbhsWGcYBLlVoE29ux9-26" style="shape=tableRow;horizontal=0;startSize=0;swimlaneHead=0;swimlaneBody=0;top=0;left=0;bottom=0;right=0;dropTarget=0;collapsible=0;recursiveResize=0;expand=0;fontStyle=1;strokeColor=inherit;fillColor=#EAF2D3;" vertex="1" parent="WdbhsWGcYBLlVoE29ux9-1">
          <mxGeometry y="279" width="980" height="39" as="geometry" />
        </mxCell>
        <mxCell id="WdbhsWGcYBLlVoE29ux9-71" value="Complete system tests and deploy the solution" style="connectable=0;recursiveResize=0;strokeColor=#9673a6;fillColor=#e1d5e7;whiteSpace=wrap;html=1;" vertex="1" parent="WdbhsWGcYBLlVoE29ux9-26">
          <mxGeometry width="291" height="39" as="geometry">
            <mxRectangle width="291" height="39" as="alternateBounds" />
          </mxGeometry>
        </mxCell>
        <mxCell id="WdbhsWGcYBLlVoE29ux9-27" style="connectable=0;recursiveResize=0;strokeColor=#9673a6;fillColor=#e1d5e7;whiteSpace=wrap;html=1;" vertex="1" parent="WdbhsWGcYBLlVoE29ux9-26">
          <mxGeometry x="291" width="114" height="39" as="geometry">
            <mxRectangle width="114" height="39" as="alternateBounds" />
          </mxGeometry>
        </mxCell>
        <mxCell id="WdbhsWGcYBLlVoE29ux9-122" style="connectable=0;recursiveResize=0;strokeColor=#9673a6;fillColor=#e1d5e7;whiteSpace=wrap;html=1;" vertex="1" parent="WdbhsWGcYBLlVoE29ux9-26">
          <mxGeometry x="405" width="113" height="39" as="geometry">
            <mxRectangle width="113" height="39" as="alternateBounds" />
          </mxGeometry>
        </mxCell>
        <mxCell id="WdbhsWGcYBLlVoE29ux9-138" style="connectable=0;recursiveResize=0;strokeColor=#9673a6;fillColor=#e1d5e7;whiteSpace=wrap;html=1;" vertex="1" parent="WdbhsWGcYBLlVoE29ux9-26">
          <mxGeometry x="518" width="114" height="39" as="geometry">
            <mxRectangle width="114" height="39" as="alternateBounds" />
          </mxGeometry>
        </mxCell>
        <mxCell id="WdbhsWGcYBLlVoE29ux9-146" style="connectable=0;recursiveResize=0;strokeColor=#9673a6;fillColor=#e1d5e7;whiteSpace=wrap;html=1;" vertex="1" parent="WdbhsWGcYBLlVoE29ux9-26">
          <mxGeometry x="632" width="114" height="39" as="geometry">
            <mxRectangle width="114" height="39" as="alternateBounds" />
          </mxGeometry>
        </mxCell>
        <mxCell id="WdbhsWGcYBLlVoE29ux9-154" style="connectable=0;recursiveResize=0;strokeColor=#9673a6;fillColor=#e1d5e7;whiteSpace=wrap;html=1;" vertex="1" parent="WdbhsWGcYBLlVoE29ux9-26">
          <mxGeometry x="746" width="114" height="39" as="geometry">
            <mxRectangle width="114" height="39" as="alternateBounds" />
          </mxGeometry>
        </mxCell>
        <mxCell id="WdbhsWGcYBLlVoE29ux9-230" style="connectable=0;recursiveResize=0;strokeColor=#9673a6;fillColor=#e1d5e7;whiteSpace=wrap;html=1;" vertex="1" parent="WdbhsWGcYBLlVoE29ux9-26">
          <mxGeometry x="860" width="120" height="39" as="geometry">
            <mxRectangle width="120" height="39" as="alternateBounds" />
          </mxGeometry>
        </mxCell>
        <mxCell id="WdbhsWGcYBLlVoE29ux9-172" value="Core Processes" style="text;html=1;align=center;verticalAlign=middle;resizable=0;points=[];autosize=1;strokeColor=none;fillColor=none;fontSize=12;fontFamily=Helvetica;fontColor=default;" vertex="1" parent="1">
          <mxGeometry x="304" y="230" width="110" height="30" as="geometry" />
        </mxCell>
        <mxCell id="WdbhsWGcYBLlVoE29ux9-174" value="&lt;font style=&quot;font-size: 18px;&quot;&gt;Iterations&lt;/font&gt;" style="text;html=1;align=center;verticalAlign=middle;resizable=0;points=[];autosize=1;strokeColor=none;fillColor=none;fontSize=12;fontFamily=Helvetica;fontColor=default;" vertex="1" parent="1">
          <mxGeometry x="610" y="180" width="100" height="30" as="geometry" />
        </mxCell>
        <mxCell id="WdbhsWGcYBLlVoE29ux9-207" value="" style="verticalLabelPosition=bottom;verticalAlign=top;html=1;shape=mxgraph.basic.half_circle;shadow=0;strokeColor=#E6E6E6;align=center;fontFamily=Helvetica;fontSize=12;fontColor=default;fillColor=#666666;direction=west;" vertex="1" parent="1">
          <mxGeometry x="530" y="260" width="110" height="40" as="geometry" />
        </mxCell>
        <mxCell id="WdbhsWGcYBLlVoE29ux9-210" value="" style="verticalLabelPosition=bottom;verticalAlign=top;html=1;shape=mxgraph.basic.half_circle;shadow=0;strokeColor=#E6E6E6;align=center;fontFamily=Helvetica;fontSize=12;fontColor=default;fillColor=#666666;direction=west;" vertex="1" parent="1">
          <mxGeometry x="640" y="280" width="120" height="20" as="geometry" />
        </mxCell>
        <mxCell id="WdbhsWGcYBLlVoE29ux9-211" value="" style="verticalLabelPosition=bottom;verticalAlign=top;html=1;shape=mxgraph.basic.half_circle;shadow=0;strokeColor=#E6E6E6;align=center;fontFamily=Helvetica;fontSize=12;fontColor=default;fillColor=#666666;direction=west;" vertex="1" parent="1">
          <mxGeometry x="760" y="290" width="110" height="10" as="geometry" />
        </mxCell>
        <mxCell id="WdbhsWGcYBLlVoE29ux9-232" value="" style="verticalLabelPosition=bottom;verticalAlign=top;html=1;shape=mxgraph.basic.half_circle;shadow=0;strokeColor=#E6E6E6;align=center;fontFamily=Helvetica;fontSize=12;fontColor=default;fillColor=#666666;direction=west;" vertex="1" parent="1">
          <mxGeometry x="870" y="330" width="110" height="10" as="geometry" />
        </mxCell>
        <mxCell id="WdbhsWGcYBLlVoE29ux9-233" value="" style="verticalLabelPosition=bottom;verticalAlign=top;html=1;shape=mxgraph.basic.half_circle;shadow=0;strokeColor=#E6E6E6;align=center;fontFamily=Helvetica;fontSize=12;fontColor=default;fillColor=#666666;direction=west;" vertex="1" parent="1">
          <mxGeometry x="990" y="330" width="110" height="10" as="geometry" />
        </mxCell>
        <mxCell id="WdbhsWGcYBLlVoE29ux9-234" value="" style="verticalLabelPosition=bottom;verticalAlign=top;html=1;shape=mxgraph.basic.half_circle;shadow=0;strokeColor=#E6E6E6;align=center;fontFamily=Helvetica;fontSize=12;fontColor=default;fillColor=#666666;direction=west;" vertex="1" parent="1">
          <mxGeometry x="1104" y="330" width="110" height="10" as="geometry" />
        </mxCell>
        <mxCell id="WdbhsWGcYBLlVoE29ux9-236" value="" style="verticalLabelPosition=bottom;verticalAlign=top;html=1;shape=mxgraph.basic.half_circle;shadow=0;strokeColor=#E6E6E6;align=center;fontFamily=Helvetica;fontSize=12;fontColor=default;fillColor=#666666;direction=west;" vertex="1" parent="1">
          <mxGeometry x="530" y="300" width="110" height="40" as="geometry" />
        </mxCell>
        <mxCell id="WdbhsWGcYBLlVoE29ux9-237" value="" style="verticalLabelPosition=bottom;verticalAlign=top;html=1;shape=mxgraph.basic.half_circle;shadow=0;strokeColor=#E6E6E6;align=center;fontFamily=Helvetica;fontSize=12;fontColor=default;fillColor=#666666;direction=west;" vertex="1" parent="1">
          <mxGeometry x="640" y="310" width="120" height="30" as="geometry" />
        </mxCell>
        <mxCell id="WdbhsWGcYBLlVoE29ux9-238" value="" style="verticalLabelPosition=bottom;verticalAlign=top;html=1;shape=mxgraph.basic.half_circle;shadow=0;strokeColor=#E6E6E6;align=center;fontFamily=Helvetica;fontSize=12;fontColor=default;fillColor=#666666;direction=west;" vertex="1" parent="1">
          <mxGeometry x="760" y="320" width="110" height="20" as="geometry" />
        </mxCell>
        <mxCell id="WdbhsWGcYBLlVoE29ux9-239" value="" style="verticalLabelPosition=bottom;verticalAlign=top;html=1;shape=mxgraph.basic.half_circle;shadow=0;strokeColor=#E6E6E6;align=center;fontFamily=Helvetica;fontSize=12;fontColor=default;fillColor=#666666;direction=west;" vertex="1" parent="1">
          <mxGeometry x="530" y="360" width="110" height="20" as="geometry" />
        </mxCell>
        <mxCell id="WdbhsWGcYBLlVoE29ux9-240" value="" style="verticalLabelPosition=bottom;verticalAlign=top;html=1;shape=mxgraph.basic.half_circle;shadow=0;strokeColor=#E6E6E6;align=center;fontFamily=Helvetica;fontSize=12;fontColor=default;fillColor=#666666;direction=west;" vertex="1" parent="1">
          <mxGeometry x="640" y="340" width="110" height="40" as="geometry" />
        </mxCell>
        <mxCell id="WdbhsWGcYBLlVoE29ux9-241" value="" style="verticalLabelPosition=bottom;verticalAlign=top;html=1;shape=mxgraph.basic.half_circle;shadow=0;strokeColor=#E6E6E6;align=center;fontFamily=Helvetica;fontSize=12;fontColor=default;fillColor=#666666;direction=west;" vertex="1" parent="1">
          <mxGeometry x="750" y="350" width="120" height="30" as="geometry" />
        </mxCell>
        <mxCell id="WdbhsWGcYBLlVoE29ux9-242" value="" style="verticalLabelPosition=bottom;verticalAlign=top;html=1;shape=mxgraph.basic.half_circle;shadow=0;strokeColor=#E6E6E6;align=center;fontFamily=Helvetica;fontSize=12;fontColor=default;fillColor=#666666;direction=west;" vertex="1" parent="1">
          <mxGeometry x="870" y="350" width="120" height="30" as="geometry" />
        </mxCell>
        <mxCell id="WdbhsWGcYBLlVoE29ux9-243" value="" style="verticalLabelPosition=bottom;verticalAlign=top;html=1;shape=mxgraph.basic.half_circle;shadow=0;strokeColor=#E6E6E6;align=center;fontFamily=Helvetica;fontSize=12;fontColor=default;fillColor=#666666;direction=west;" vertex="1" parent="1">
          <mxGeometry x="990" y="370" width="110" height="10" as="geometry" />
        </mxCell>
        <mxCell id="WdbhsWGcYBLlVoE29ux9-244" value="" style="verticalLabelPosition=bottom;verticalAlign=top;html=1;shape=mxgraph.basic.half_circle;shadow=0;strokeColor=#E6E6E6;align=center;fontFamily=Helvetica;fontSize=12;fontColor=default;fillColor=#666666;direction=west;" vertex="1" parent="1">
          <mxGeometry x="530" y="410" width="110" height="10" as="geometry" />
        </mxCell>
        <mxCell id="WdbhsWGcYBLlVoE29ux9-245" value="" style="verticalLabelPosition=bottom;verticalAlign=top;html=1;shape=mxgraph.basic.half_circle;shadow=0;strokeColor=#E6E6E6;align=center;fontFamily=Helvetica;fontSize=12;fontColor=default;fillColor=#666666;direction=west;" vertex="1" parent="1">
          <mxGeometry x="640" y="400" width="110" height="20" as="geometry" />
        </mxCell>
        <mxCell id="WdbhsWGcYBLlVoE29ux9-246" value="" style="verticalLabelPosition=bottom;verticalAlign=top;html=1;shape=mxgraph.basic.half_circle;shadow=0;strokeColor=#E6E6E6;align=center;fontFamily=Helvetica;fontSize=12;fontColor=default;fillColor=#666666;direction=west;" vertex="1" parent="1">
          <mxGeometry x="750" y="390" width="120" height="30" as="geometry" />
        </mxCell>
        <mxCell id="WdbhsWGcYBLlVoE29ux9-247" value="" style="verticalLabelPosition=bottom;verticalAlign=top;html=1;shape=mxgraph.basic.half_circle;shadow=0;strokeColor=#E6E6E6;align=center;fontFamily=Helvetica;fontSize=12;fontColor=default;fillColor=#666666;direction=west;" vertex="1" parent="1">
          <mxGeometry x="870" y="400" width="120" height="20" as="geometry" />
        </mxCell>
        <mxCell id="WdbhsWGcYBLlVoE29ux9-249" value="" style="verticalLabelPosition=bottom;verticalAlign=top;html=1;shape=mxgraph.basic.half_circle;shadow=0;strokeColor=#E6E6E6;align=center;fontFamily=Helvetica;fontSize=12;fontColor=default;fillColor=#666666;direction=west;" vertex="1" parent="1">
          <mxGeometry x="640" y="440" width="110" height="20" as="geometry" />
        </mxCell>
        <mxCell id="WdbhsWGcYBLlVoE29ux9-251" value="" style="verticalLabelPosition=bottom;verticalAlign=top;html=1;shape=mxgraph.basic.half_circle;shadow=0;strokeColor=#E6E6E6;align=center;fontFamily=Helvetica;fontSize=12;fontColor=default;fillColor=#666666;direction=west;" vertex="1" parent="1">
          <mxGeometry x="750" y="430" width="120" height="30" as="geometry" />
        </mxCell>
        <mxCell id="WdbhsWGcYBLlVoE29ux9-252" value="" style="verticalLabelPosition=bottom;verticalAlign=top;html=1;shape=mxgraph.basic.half_circle;shadow=0;strokeColor=#E6E6E6;align=center;fontFamily=Helvetica;fontSize=12;fontColor=default;fillColor=#666666;direction=west;" vertex="1" parent="1">
          <mxGeometry x="870" y="420" width="110" height="40" as="geometry" />
        </mxCell>
        <mxCell id="WdbhsWGcYBLlVoE29ux9-253" value="" style="verticalLabelPosition=bottom;verticalAlign=top;html=1;shape=mxgraph.basic.half_circle;shadow=0;strokeColor=#E6E6E6;align=center;fontFamily=Helvetica;fontSize=12;fontColor=default;fillColor=#666666;direction=west;" vertex="1" parent="1">
          <mxGeometry x="980" y="430" width="120" height="30" as="geometry" />
        </mxCell>
        <mxCell id="WdbhsWGcYBLlVoE29ux9-254" value="" style="verticalLabelPosition=bottom;verticalAlign=top;html=1;shape=mxgraph.basic.half_circle;shadow=0;strokeColor=#E6E6E6;align=center;fontFamily=Helvetica;fontSize=12;fontColor=default;fillColor=#666666;direction=west;" vertex="1" parent="1">
          <mxGeometry x="1100" y="440" width="120" height="20" as="geometry" />
        </mxCell>
        <mxCell id="WdbhsWGcYBLlVoE29ux9-256" value="" style="verticalLabelPosition=bottom;verticalAlign=top;html=1;shape=mxgraph.basic.half_circle;shadow=0;strokeColor=#E6E6E6;align=center;fontFamily=Helvetica;fontSize=12;fontColor=default;fillColor=#666666;direction=west;" vertex="1" parent="1">
          <mxGeometry x="530" y="450" width="110" height="10" as="geometry" />
        </mxCell>
        <mxCell id="WdbhsWGcYBLlVoE29ux9-257" value="" style="verticalLabelPosition=bottom;verticalAlign=top;html=1;shape=mxgraph.basic.half_circle;shadow=0;strokeColor=#E6E6E6;align=center;fontFamily=Helvetica;fontSize=12;fontColor=default;fillColor=#666666;direction=west;" vertex="1" parent="1">
          <mxGeometry x="760" y="488" width="110" height="10" as="geometry" />
        </mxCell>
        <mxCell id="WdbhsWGcYBLlVoE29ux9-258" value="" style="verticalLabelPosition=bottom;verticalAlign=top;html=1;shape=mxgraph.basic.half_circle;shadow=0;strokeColor=#E6E6E6;align=center;fontFamily=Helvetica;fontSize=12;fontColor=default;fillColor=#666666;direction=west;" vertex="1" parent="1">
          <mxGeometry x="870" y="478" width="110" height="20" as="geometry" />
        </mxCell>
        <mxCell id="WdbhsWGcYBLlVoE29ux9-259" value="" style="verticalLabelPosition=bottom;verticalAlign=top;html=1;shape=mxgraph.basic.half_circle;shadow=0;strokeColor=#E6E6E6;align=center;fontFamily=Helvetica;fontSize=12;fontColor=default;fillColor=#666666;direction=west;" vertex="1" parent="1">
          <mxGeometry x="980" y="468" width="120" height="30" as="geometry" />
        </mxCell>
        <mxCell id="WdbhsWGcYBLlVoE29ux9-260" value="" style="verticalLabelPosition=bottom;verticalAlign=top;html=1;shape=mxgraph.basic.half_circle;shadow=0;strokeColor=#E6E6E6;align=center;fontFamily=Helvetica;fontSize=12;fontColor=default;fillColor=#666666;direction=west;" vertex="1" parent="1">
          <mxGeometry x="1100" y="460" width="120" height="38" as="geometry" />
        </mxCell>
        <mxCell id="WdbhsWGcYBLlVoE29ux9-262" value="" style="verticalLabelPosition=bottom;verticalAlign=top;html=1;shape=mxgraph.basic.half_circle;shadow=0;strokeColor=#E6E6E6;align=center;fontFamily=Helvetica;fontSize=12;fontColor=default;fillColor=#666666;direction=west;" vertex="1" parent="1">
          <mxGeometry x="990" y="410" width="110" height="10" as="geometry" />
        </mxCell>
      </root>
    </mxGraphModel>
  </diagram>
</mxfile>
